<svg width="264" height="75" viewBox="0 0 264 75" fill="none" xmlns="http://www.w3.org/2000/svg">
<path d="M51.2422 3.625C56.7109 3.9375 61.2031 6.04687 64.7188 9.95312C68.2344 13.7812 70.7734 18.1562 72.3359 23.0781C73.8984 28 74.6797 33.0391 74.6797 38.1953C74.6797 43.3516 73.8984 48.3906 72.3359 53.3125C70.8516 58.2344 68.3125 62.6484 64.7188 66.5547C61.2031 70.3828 56.7109 72.4531 51.2422 72.7656H8.11719C6.00781 72.6875 4.21094 71.9453 2.72656 70.5391C1.32031 69.0547 0.578125 67.2578 0.5 65.1484V36.0859C0.578125 33.8984 1.39844 32.1016 2.96094 30.6953C4.52344 29.2109 6.39844 28.4688 8.58594 28.4688C10.6953 28.5469 12.4922 29.3281 13.9766 30.8125C15.4609 32.2188 16.2422 33.9766 16.3203 36.0859V53.8984C16.3203 56.0078 17.4141 57.0625 19.6016 57.0625H47.2578C50.2266 56.9062 52.6875 55.7734 54.6406 53.6641C56.5937 51.5547 58 49.1719 58.8594 46.5156C59.7969 43.7812 60.2656 41.0078 60.2656 38.1953C60.2656 35.3828 59.7969 32.6484 58.8594 29.9922C58 27.2578 56.5937 24.8359 54.6406 22.7266C52.6875 20.6172 50.2266 19.4844 47.2578 19.3281H8.11719C3.42969 18.9375 0.890625 16.3984 0.5 11.7109C0.5 9.52344 1.20312 7.64844 2.60938 6.08594C4.09375 4.52344 5.92969 3.70312 8.11719 3.625H51.2422ZM112.297 0.460938C115.031 0.460938 117.688 0.929688 120.266 1.86719C122.922 2.80469 125.461 4.17187 127.883 5.96875C128.273 6.35938 128.703 6.75 129.172 7.14062C129.562 6.75 129.992 6.35938 130.461 5.96875C132.883 4.17187 135.383 2.80469 137.961 1.86719C140.617 0.929688 143.273 0.460938 145.93 0.460938C148.664 0.460938 151.32 0.929688 153.898 1.86719C156.555 2.80469 159.055 4.21094 161.398 6.08594C163.82 7.88281 165.93 10.3047 167.727 13.3516C169.602 16.3984 170.539 20.0312 170.539 24.25V66.5547C170.07 71.2422 167.492 73.7812 162.805 74.1719C160.617 74.1719 158.703 73.4688 157.062 72.0625C155.5 70.5781 154.719 68.7422 154.719 66.5547V25.1875C154.719 23.3125 154.367 21.75 153.664 20.5C152.961 19.1719 152.18 18.1562 151.32 17.4531C150.461 16.6719 149.562 16.125 148.625 15.8125C147.688 15.4219 146.75 15.2266 145.812 15.2266C144.875 15.2266 143.938 15.4219 143 15.8125C142.141 16.125 141.281 16.6719 140.422 17.4531C139.562 18.1562 138.781 19.1719 138.078 20.5C137.375 21.75 136.984 23.3125 136.906 25.1875V66.5547C136.438 71.2422 133.859 73.7812 129.172 74.1719C126.984 74.1719 125.07 73.4688 123.43 72.0625C121.867 70.5781 121.086 68.7422 121.086 66.5547V25.1875C121.086 23.3125 120.734 21.75 120.031 20.5C119.328 19.1719 118.547 18.1562 117.688 17.4531C116.828 16.6719 115.93 16.125 114.992 15.8125C114.055 15.4219 113.117 15.2266 112.18 15.2266C111.242 15.2266 110.305 15.4219 109.367 15.8125C108.508 16.125 107.648 16.6719 106.789 17.4531C105.93 18.1562 105.148 19.1719 104.445 20.5C103.742 21.75 103.352 23.3125 103.273 25.1875V66.5547C102.883 71.2422 100.344 73.7812 95.6562 74.1719C93.4688 74.1719 91.5547 73.4688 89.9141 72.0625C88.3516 70.5781 87.5703 68.7422 87.5703 66.5547V24.25C87.7266 20.0312 88.7031 16.3984 90.5 13.3516C92.2969 10.3047 94.4062 7.88281 96.8281 6.08594C99.25 4.21094 101.75 2.80469 104.328 1.86719C106.984 0.929688 109.641 0.460938 112.297 0.460938ZM261.125 11.4766C261.125 13.6641 260.344 15.5 258.781 16.9844C257.297 18.5469 255.461 19.3281 253.273 19.3281H206.398C204.914 19.4062 203.664 19.7578 202.648 20.3828C201.711 20.9297 201.008 21.5938 200.539 22.375C200.07 23.0781 199.836 23.8203 199.836 24.6016C199.836 25.3828 200.07 26.1641 200.539 26.9453C201.008 27.6484 201.711 28.3125 202.648 28.9375C203.664 29.4844 204.914 29.7969 206.398 29.875H239.68C245.148 30.0312 249.641 31.3203 253.156 33.7422C256.75 36.0859 259.289 38.8203 260.773 41.9453C262.336 44.9922 263.117 48.1172 263.117 51.3203C263.117 54.4453 262.336 57.5703 260.773 60.6953C259.211 63.7422 256.672 66.4766 253.156 68.8984C249.641 71.2422 245.148 72.4141 239.68 72.4141H238.977C238.508 72.4922 238.039 72.5312 237.57 72.5312H193.273C191.086 72.5312 189.211 71.7891 187.648 70.3047C186.164 68.7422 185.422 66.8672 185.422 64.6797C185.422 62.4922 186.203 60.6562 187.766 59.1719C189.25 57.6094 191.086 56.8281 193.273 56.8281H240.383C241.867 56.9062 243.078 56.6328 244.016 56.0078C245.031 55.3828 245.773 54.6797 246.242 53.8984C246.711 53.0391 246.945 52.1797 246.945 51.3203C246.945 50.7734 246.711 50.0312 246.242 49.0938C245.773 48.0781 245.031 47.2578 244.016 46.6328C243.078 46.0078 241.867 45.6562 240.383 45.5781H207.102C201.633 45.4219 197.102 44.1719 193.508 41.8281C189.992 39.4844 187.453 36.8281 185.891 33.8594C184.406 30.8125 183.664 27.7266 183.664 24.6016C183.664 21.5547 184.445 18.5469 186.008 15.5781C187.57 12.5312 190.109 9.83594 193.625 7.49219C197.141 5.14844 201.633 3.89844 207.102 3.74219H207.805C208.273 3.66406 208.742 3.625 209.211 3.625H253.273C255.461 3.625 257.297 4.40625 258.781 5.96875C260.344 7.45312 261.125 9.28906 261.125 11.4766Z" fill="black"/>
</svg>
